<svg id="组_8" data-name="组 8" xmlns="http://www.w3.org/2000/svg" xmlns:xlink="http://www.w3.org/1999/xlink" width="43.86" height="39.387" viewBox="0 0 43.86 39.387">
  <defs>
    <clipPath id="clip-path">
      <rect id="矩形_187" data-name="矩形 187" width="43.86" height="39.387" fill="none"/>
    </clipPath>
  </defs>
  <g id="组_7" data-name="组 7" clip-path="url(#clip-path)">
    <path id="路径_49" data-name="路径 49" d="M527.715,23.241a37.646,37.646,0,0,1,8.412-1.882c.259,9.482.037,19.444.111,29.11a42.851,42.851,0,0,0-15.5,4.759V26.562c.686-.79,1.854-1.1,2.767-1.661" transform="translate(-498.425 -20.444)" fill="#ffeed6"/>
    <path id="路径_50" data-name="路径 50" d="M527.715,23.241a37.646,37.646,0,0,1,8.412-1.882c.259,9.482.037,19.444.111,29.11a42.851,42.851,0,0,0-15.5,4.759V26.562c.686-.79,1.854-1.1,2.767-1.661" transform="translate(-498.425 -20.444)" fill="#ffeed6"/>
    <path id="路径_51" data-name="路径 51" d="M527.715,23.241a37.646,37.646,0,0,1,8.412-1.882c.259,9.482.037,19.444.111,29.11a42.851,42.851,0,0,0-15.5,4.759V26.562c.686-.79,1.854-1.1,2.767-1.661" transform="translate(-498.425 -20.444)" fill="#fae9cc"/>
    <path id="路径_52" data-name="路径 52" d="M43.839,34.251c-.009-.265-.019-.531-.019-.794,0-2.68,0-5.4.009-8.122.009-5.391.019-10.966-.009-16.234,0-.111.009-.238.017-.37.042-.655.107-1.64-.7-2.08a1.878,1.878,0,0,0-.97-.225c-.139,0-.284.008-.425.017-.094.006-.185.012-.267.012h-.041a.894.894,0,0,0-.161-.016v-2.2a.917.917,0,0,0-1-.911,6.539,6.539,0,0,1-1.379,0,.919.919,0,0,0-.221.009Q38.648,2.106,38.617.89A.916.916,0,0,0,37.579.007,39.125,39.125,0,0,0,29,1.929a21.339,21.339,0,0,0-4.317,1.708c-.026.013-.051.026-.075.041a9.746,9.746,0,0,1-.92.475,7.309,7.309,0,0,0-1.7,1.014.909.909,0,0,0-.119-.078C17.487,2.745,6.743.322,5.966.322a.932.932,0,0,0-.8.423.921.921,0,0,0-.148.5V3.322c-.015,0-.029,0-.044,0-.212.009-.535.006-.861,0-.176,0-.354,0-.518,0H3.378a.916.916,0,0,0-.9.915V6.4c-.073-.007-.151-.011-.24-.011a8.49,8.49,0,0,0-1.475.16.915.915,0,0,0-.72.9c.017,4.332.007,8.84,0,13.2-.011,4.8-.022,9.763,0,14.472,0,.111-.009.238-.017.37-.04.622-.1,1.54.582,2.009a1.971,1.971,0,0,0,1.383.462,7.185,7.185,0,0,0,1.054-.1c.154-.023.3-.046.437-.059,1.671-.161,3.38-.244,5.082-.244a42.882,42.882,0,0,1,10.106,1.106c.268.067.551.169.851.277A6.564,6.564,0,0,0,21,39.347a6.445,6.445,0,0,0,.706.04,7.947,7.947,0,0,0,2.522-.475c.292-.092.568-.178.858-.25a42.223,42.223,0,0,1,10.008-1.113c1.7,0,3.4.084,5.065.25.126.012.254.028.384.042a10.186,10.186,0,0,0,1.2.092,3.993,3.993,0,0,0,1.219-.173.915.915,0,0,0,.582-.553,7.442,7.442,0,0,0,.3-2.956M29.29,2.8A37.645,37.645,0,0,1,37.7.915c.259,9.482.037,19.444.111,29.11a42.852,42.852,0,0,0-15.5,4.759V6.117c.686-.79,1.854-1.1,2.767-1.661" transform="translate(0 0.001)" fill="#818282"/>
    <path id="路径_53" data-name="路径 53" d="M138.5,28.9c-.081-.181,11.122,2.307,15.5,4.649V62.329c-.211.325-.546-.163-.664-.222A41.227,41.227,0,0,0,138.5,57.68Z" transform="translate(-132.561 -27.654)" fill="#ffeed6"/>
    <path id="路径_54" data-name="路径 54" d="M79.1,98.808c.511-.006,1.238.016,1.627,0-.034.566-.055,18.3.034,26.566a39.558,39.558,0,0,1,15.053,4.317c.673.36,1.323.883,1.771.885.7,0,3.011-1.435,3.763-1.771a34.4,34.4,0,0,1,13.061-3.321c.074-8.892-.147-17.965.111-26.673a7.637,7.637,0,0,0,1.55,0v28.778a41.968,41.968,0,0,0-14.389,1.992c-1.341.415-2.786,1.4-3.985,1.439a5.909,5.909,0,0,1-2.1-.664A40.571,40.571,0,0,0,79.1,127.586Z" transform="translate(-75.708 -94.571)" fill="#ffeed6"/>
    <path id="路径_55" data-name="路径 55" d="M63.339,196.654a9.8,9.8,0,0,1-.222,3.431,6.133,6.133,0,0,1-2.435,0,47.072,47.072,0,0,0-15.385.885,9.236,9.236,0,0,1-3.763.664,20.636,20.636,0,0,1-2.214-.664,48.162,48.162,0,0,0-15.5-.885c-.714.069-1.789.376-2.214-.111-.4-.2-.218-1.1-.221-1.66-.048-8.971.036-18.557,0-27.671a5.328,5.328,0,0,1,1.55-.111V197.1a39.783,39.783,0,0,1,17.267,2.878,9.87,9.87,0,0,0,2.1.775,9.376,9.376,0,0,0,2.1-.775A40.047,40.047,0,0,1,61.568,197.1c.259-8.67.037-17.7.111-26.55.345.083,1.1-.123,1.439.1.4.2.219,1.1.222,1.66.042,7.888,0,16.29,0,24.351" transform="translate(-20.434 -163.196)" fill="#ffeed6"/>
    <path id="路径_56" data-name="路径 56" d="M138.5,28.9c-.081-.181,11.122,2.307,15.5,4.649V62.329c-.211.325-.546-.163-.664-.222A41.227,41.227,0,0,0,138.5,57.68Z" transform="translate(-132.561 -27.654)" fill="#fae9cc"/>
    <path id="路径_57" data-name="路径 57" d="M79.1,98.808c.511-.006,1.238.016,1.627,0-.034.566-.055,18.3.034,26.566a39.558,39.558,0,0,1,15.053,4.317c.673.36,1.323.883,1.771.885.7,0,3.011-1.435,3.763-1.771a34.4,34.4,0,0,1,13.061-3.321c.074-8.892-.147-17.965.111-26.673a7.637,7.637,0,0,0,1.55,0v28.778a41.968,41.968,0,0,0-14.389,1.992c-1.341.415-2.786,1.4-3.985,1.439a5.909,5.909,0,0,1-2.1-.664A40.571,40.571,0,0,0,79.1,127.586Z" transform="translate(-75.708 -94.571)" fill="#fae9cc"/>
    <path id="路径_58" data-name="路径 58" d="M63.339,196.654a9.8,9.8,0,0,1-.222,3.431,6.133,6.133,0,0,1-2.435,0,47.072,47.072,0,0,0-15.385.885,9.236,9.236,0,0,1-3.763.664,20.636,20.636,0,0,1-2.214-.664,48.162,48.162,0,0,0-15.5-.885c-.714.069-1.789.376-2.214-.111-.4-.2-.218-1.1-.221-1.66-.048-8.971.036-18.557,0-27.671a5.328,5.328,0,0,1,1.55-.111V197.1a39.783,39.783,0,0,1,17.267,2.878,9.87,9.87,0,0,0,2.1.775,9.376,9.376,0,0,0,2.1-.775A40.047,40.047,0,0,1,61.568,197.1c.259-8.67.037-17.7.111-26.55.345.083,1.1-.123,1.439.1.4.2.219,1.1.222,1.66.042,7.888,0,16.29,0,24.351" transform="translate(-20.434 -163.196)" fill="#fae9cc"/>
  </g>
</svg>
